# xmcd
#
# Track frame offsets: 
#        150
#        16356
#        38489
#        58588
#        71094
#        100083
#        114116
#        130598
#        154666
#        168887
#        189019
#        212831
#        244502
#
# Disc length: 3511 seconds
#
# Revision: 2
# Processed by: cddbd v1.5.2PL0 Copyright (c) Steve Scherf et al.
# Submitted via: ExactAudioCopy v1.3
#
DISCID=970db50d
DTITLE=J. P. Soars - More Bees With Honey
DYEAR=2011
DGENRE=Blues
TTITLE0=More Bees With Honey
TTITLE1=K.Y.N.O.M.B,
TTITLE2=So Many Times
TTITLE3=Hot Little Woman
TTITLE4=Doggin'
TTITLE5=Back of My Mind
TTITLE6=The Hustie (Is On)
TTITLE7=Lost It All
TTITLE8=Twitchin
TTITLE9=Sweet Blond Call
TTITLE10=They'll Do It Every Time
TTITLE11=Chasing Whiskey With Whishey
TTITLE12=Where'd You Stay Last Night
EXTD=
EXTT0=
EXTT1=
EXTT2=
EXTT3=
EXTT4=
EXTT5=
EXTT6=
EXTT7=
EXTT8=
EXTT9=
EXTT10=
EXTT11=
EXTT12=
PLAYORDER=
